HIERARCHY
ROOT Hips
{
  OFFSET 263.056 91.6644 -274.608
  CHANNELS 6 Xposition Yposition Zposition Zrotation Xrotation Yrotation
  JOINT LeftUpLeg
  {
    OFFSET 8.64259 1.95398 -2.38835
    CHANNELS 3 Zrotation Xrotation Yrotation
    JOINT LeftLeg
    {
      OFFSET 43.7702 0 0
      CHANNELS 3 Zrotation Xrotation Yrotation
      JOINT LeftFoot
      {
        OFFSET 40.6238 0 0
        CHANNELS 3 Zrotation Xrotation Yrotation
        JOINT LeftToeBase
        {
          OFFSET 12.7242 0 0
          CHANNELS 3 Zrotation Xrotation Yrotation
          End Site
          {
            OFFSET 0 0 0
          }
        }
      }
    }
  }
  JOINT RightUpLeg
  {
    OFFSET -8.2249 1.95398 -2.59336
    CHANNELS 3 Zrotation Xrotation Yrotation
    JOINT RightLeg
    {
      OFFSET 43.5653 0 0
      CHANNELS 3 Zrotation Xrotation Yrotation
      JOINT RightFoot
      {
        OFFSET 40.6238 0 0
        CHANNELS 3 Zrotation Xrotation Yrotation
        JOINT RightToeBase
        {
          OFFSET 12.7242 0 0
          CHANNELS 3 Zrotation Xrotation Yrotation
          End Site
          {
            OFFSET 0 0 0
          }
        }
      }
    }
  }
  JOINT Spine
  {
    OFFSET 0.165834 0.87714 6.61349
    CHANNELS 3 Zrotation Xrotation Yrotation
    JOINT Spine1
    {
      OFFSET 7.38963 1.71661e-005 0
      CHANNELS 3 Zrotation Xrotation Yrotation
      JOINT Spine2
      {
        OFFSET 11.9445 1.14441e-005 0
        CHANNELS 3 Zrotation Xrotation Yrotation
        JOINT Spine3
        {
          OFFSET 14.7254 4.19617e-005 0
          CHANNELS 3 Zrotation Xrotation Yrotation
          JOINT Spine4
          {
            OFFSET 10.9679 0 0
            CHANNELS 3 Zrotation Xrotation Yrotation
            JOINT RightShoulder
            {
              OFFSET 2.46616 -1.6653 3.69651
              CHANNELS 3 Zrotation Xrotation Yrotation
              JOINT RightArm
              {
                OFFSET 13.0012 0 0
                CHANNELS 3 Zrotation Xrotation Yrotation
                JOINT RightForeArm
                {
                  OFFSET 28.7848 1.52588e-005 0
                  CHANNELS 3 Zrotation Xrotation Yrotation
                  JOINT RightHand
                  {
                    OFFSET 26.5688 1.52588e-005 0
                    CHANNELS 3 Zrotation Xrotation Yrotation
                    End Site
                    {
                      OFFSET 0 0 0
                    }
                  }
                }
              }
            }
            JOINT LeftShoulder
            {
              OFFSET 2.38034 -1.29275 -3.7523
              CHANNELS 3 Zrotation Xrotation Yrotation
              JOINT LeftArm
              {
                OFFSET 16.3182 6.10352e-005 0
                CHANNELS 3 Zrotation Xrotation Yrotation
                JOINT LeftForeArm
                {
                  OFFSET 27.0901 0 0
                  CHANNELS 3 Zrotation Xrotation Yrotation
                  JOINT LeftHand
                  {
                    OFFSET 24.5451 1.52588e-005 0
                    CHANNELS 3 Zrotation Xrotation Yrotation
                    End Site
                    {
                      OFFSET 0 0 0
                    }
                  }
                }
              }
            }
            JOINT Neck
            {
              OFFSET 5.0226 -0.0266342 0
              CHANNELS 3 Zrotation Xrotation Yrotation
              JOINT Head
              {
                OFFSET 6.69364 2.86102e-005 0
                CHANNELS 3 Zrotation Xrotation Yrotation
                End Site
                {
                  OFFSET 0 0 0
                }
              }
            }
          }
        }
      }
    }
  }
}
MOTION
Frames:	7
Frame Time:	0.0416667
-305.601 95.2579 -284.473 88.6762 -35.9423 88.2438 -173.564 11.2974 88.9528 -20.8411 33.4258 -2.18154 53.7232 -3.69665 29.9725 33.5967 5.22152 8.60087 175.275 5.35036 87.1547 -17.5369 14.0368 0.931713 62.9918 1.5734 1.02933 36.0169 0.456454 14.5585 -0.837691 6.548 -90.3353 13.7759 -1.82412 -0.430634 2.10615 -1.84129 -0.349913 -20.4369 -1.61034 -0.959067 -0.424224 -1.61034 -0.95906 83.9678 -45.9985 -111.381 30.3508 -11.7709 10.4391 -6.94909 -15.2984 -39.0248 -6.98658 -0.779786 7.31309 -98.1587 -49.7375 66.5881 -33.1441 8.60331 5.15226 5.90584 13.0191 -31.1911 7.94838 0.711717 4.49568 8.58892 2.807 10.2106 -8.9199 0.764704 -4.08242 
-305.485 95.2613 -284.529 88.5296 -36.0808 88.4227 -173.708 11.2851 88.9645 -21.209 31.3471 -1.70957 54.3037 -3.04226 29.1896 33.6467 5.38342 3.68779 175.463 4.40272 87.558 -15.7615 12.7384 0.707 64.1254 0.678179 0.479377 34.4225 0.185959 11.9687 -0.73157 6.54116 -90.3777 13.7886 -1.63432 -0.540379 2.11861 -1.65653 -0.467914 -20.422 -1.39635 -1.00664 -0.409377 -1.39636 -1.00665 83.5467 -45.7364 -112.139 30.5816 -11.1814 10.8486 -6.4431 -14.5274 -39.2423 -7.19249 -0.761114 6.61067 -99.6509 -49.5347 64.3407 -33.2389 8.73478 5.35303 3.48898 7.79241 -30.5776 8.53509 0.593311 2.74563 6.80237 3.74918 10.2008 -7.35705 1.79779 -3.97452 
-305.335 95.2384 -284.703 88.1917 -36.7482 88.3323 -173.68 10.8081 88.7738 -20.9457 26.0548 -1.26883 55.7877 -1.52027 26.9852 38.089 9.89282 -7.33805 176.069 2.04404 87.7024 -11.0828 10.4457 -0.221193 66.3837 -1.59551 -0.846333 30.1285 -0.23548 7.01417 -0.533587 6.53943 -90.3625 13.7922 -1.23442 -0.563177 2.12171 -1.25801 -0.508299 -20.4158 -1.00811 -0.908158 -0.403191 -1.00811 -0.908157 82.6523 -46.3654 -113.299 29.9411 -10.4023 11.1717 -6.47626 -14.2977 -39.2762 -6.63022 -0.655716 5.39434 -101.685 -49.1177 61.2306 -32.5888 8.09102 5.78843 4.24886 8.71095 -30.8936 9.16712 0.817943 4.61096 4.64667 3.60472 9.926 -5.34669 1.83107 -3.76441 
-305.272 95.1879 -284.964 88.1754 -36.9812 88.349 -173.641 9.89071 88.4142 -20.5457 17.9318 -0.590617 58.3397 0.967186 22.4684 42.1743 11.9094 -24.6035 176.244 -0.534523 87.897 -5.90412 6.46633 -0.750699 67.7468 -3.43759 -1.87247 27.954 -0.333814 1.42124 -0.3907 6.62834 -90.2866 13.6155 -0.913935 -0.455222 1.94485 -0.933097 -0.41456 -20.5915 -0.734878 -0.708856 -0.578831 -0.734869 -0.708864 81.7026 -47.4003 -114.36 29.0738 -9.75608 10.5968 -6.05451 -13.4764 -38.6812 -6.46391 -0.603863 4.63798 -102.662 -48.3649 59.5065 -32.1012 8.15755 5.60306 3.44263 7.15611 -30.5381 9.15805 0.695331 3.40224 3.71249 3.02266 8.77653 -3.952 1.48828 -3.09109 
-305.174 95.1381 -285.305 88.8617 -36.8428 88.6874 -173.891 7.99956 87.7142 -19.591 6.55298 0.608774 62.3758 4.26463 14.394 42.7388 10.7855 -40.0008 176.386 -1.1701 88.5099 -6.11829 27.537 -1.46484 66.1514 -4.02797 -2.1445 35.7351 0.356769 39.9577 -0.268788 6.8477 -90.169 13.1779 -0.614778 -0.261713 1.50703 -0.625713 -0.234407 -21.0288 -0.50772 -0.434392 -1.01612 -0.507719 -0.434383 81.2129 -48.7771 -114.565 27.7533 -9.28928 9.59297 -6.03765 -13.1339 -38.7245 -6.4086 -0.60737 4.84159 -103.055 -47.4077 58.5287 -31.4142 8.38962 5.18619 3.42445 6.95047 -31.0935 7.97036 0.627889 3.55549 4.19898 2.36769 7.14189 -2.82455 1.06425 -2.51221 
-304.823 94.92 -285.728 89.5699 -36.3862 89.3509 -174.005 5.73663 87.3292 -18.2135 -5.75752 1.86708 68.9831 7.32409 2.56169 35.8883 7.01214 -48.2249 176.656 -1.59651 88.5882 -6.05907 27.9343 -2.01487 67.3063 -4.99516 -2.6265 36.7091 0.789124 39.1543 -0.129985 7.07208 -90.1367 12.7294 -0.323517 -0.235042 1.05844 -0.33354 -0.220587 -21.4767 -0.237925 -0.321409 -1.46409 -0.237911 -0.321407 82.1031 -49.7659 -112.856 26.8895 -9.13358 8.32022 -5.84588 -12.6992 -38.9915 -5.77223 -0.567019 5.40373 -104.217 -46.7566 56.5433 -30.5692 7.97759 4.81572 4.85211 9.04641 -32.0579 6.68046 0.640621 4.82034 4.31933 1.53459 5.91159 -1.77813 0.435574 -2.10328 
-304.29 94.4053 -286.14 89.9125 -36.1297 90.0458 -174.029 3.22721 87.2667 -16.2233 -17.3127 2.95988 77.8987 8.99972 -11.8628 24.3745 1.89124 -48.2749 176.792 1.99887 88.1158 -14.9377 29.1871 -1.87349 67.7606 -3.28546 -1.73555 41.1188 2.52975 37.8879 -0.0522132 7.23976 -90.0807 12.3943 -0.142053 -0.1448 0.723333 -0.148303 -0.13841 -21.8118 -0.0919673 -0.180795 -1.79916 -0.0919832 -0.180803 81.9261 -51.1708 -112.607 26.0088 -8.59967 8.11637 -6.25041 -12.4265 -39.5934 -3.74733 -0.473088 7.62595 -104.098 -45.6382 56.2094 -30.5143 7.80492 4.35689 4.53713 8.09857 -32.0173 6.57019 0.552341 3.87399 3.96595 0.823473 4.1018 0.106177 0.050957 -1.5898 
